<mxfile host="app.diagrams.net" modified="2023-12-17T02:36:08.416Z" agent="Mozilla/5.0 (Macintosh; Intel Mac OS X 10_15_7) AppleWebKit/537.36 (KHTML, like Gecko) Chrome/120.0.0.0 Safari/537.36 Edg/120.0.0.0" etag="wp7ac73S8t7k76lfGwhc" version="22.1.7" type="github">
  <diagram name="Page-1" id="13e1069c-82ec-6db2-03f1-153e76fe0fe0">
    <mxGraphModel dx="1946" dy="1068" grid="0" gridSize="10" guides="1" tooltips="1" connect="1" arrows="1" fold="1" page="1" pageScale="1" pageWidth="1100" pageHeight="850" background="none" math="0" shadow="0">
      <root>
        <mxCell id="0" />
        <mxCell id="1" parent="0" />
        <mxCell id="7baba1c4bc27f4b0-2" value="&lt;u&gt;:PurchaseForm&lt;/u&gt;" style="shape=umlLifeline;perimeter=lifelinePerimeter;whiteSpace=wrap;html=1;container=1;collapsible=0;recursiveResize=0;outlineConnect=0;rounded=1;shadow=0;comic=0;labelBackgroundColor=none;strokeWidth=1;fontFamily=Verdana;fontSize=12;align=center;" parent="1" vertex="1">
          <mxGeometry x="240" y="80" width="100" height="712" as="geometry" />
        </mxCell>
        <mxCell id="7baba1c4bc27f4b0-10" value="" style="html=1;points=[];perimeter=orthogonalPerimeter;rounded=0;shadow=0;comic=0;labelBackgroundColor=none;strokeWidth=1;fontFamily=Verdana;fontSize=12;align=center;" parent="7baba1c4bc27f4b0-2" vertex="1">
          <mxGeometry x="45" y="100" width="10" height="200" as="geometry" />
        </mxCell>
        <mxCell id="IuGNXHqaDEsQsmQJdTMt-28" value="" style="html=1;points=[[0,0,0,0,5],[0,1,0,0,-5],[1,0,0,0,5],[1,1,0,0,-5]];perimeter=orthogonalPerimeter;outlineConnect=0;targetShapes=umlLifeline;portConstraint=eastwest;newEdgeStyle={&quot;curved&quot;:0,&quot;rounded&quot;:0};" vertex="1" parent="7baba1c4bc27f4b0-2">
          <mxGeometry x="45" y="480" width="10" height="80" as="geometry" />
        </mxCell>
        <mxCell id="IuGNXHqaDEsQsmQJdTMt-49" value="" style="html=1;points=[[0,0,0,0,5],[0,1,0,0,-5],[1,0,0,0,5],[1,1,0,0,-5]];perimeter=orthogonalPerimeter;outlineConnect=0;targetShapes=umlLifeline;portConstraint=eastwest;newEdgeStyle={&quot;curved&quot;:0,&quot;rounded&quot;:0};" vertex="1" parent="7baba1c4bc27f4b0-2">
          <mxGeometry x="45" y="610" width="10" height="40" as="geometry" />
        </mxCell>
        <mxCell id="IuGNXHqaDEsQsmQJdTMt-51" value="" style="endArrow=classic;html=1;rounded=0;" edge="1" parent="7baba1c4bc27f4b0-2">
          <mxGeometry width="50" height="50" relative="1" as="geometry">
            <mxPoint x="55" y="640" as="sourcePoint" />
            <mxPoint x="55" y="620" as="targetPoint" />
            <Array as="points">
              <mxPoint x="85" y="640" />
              <mxPoint x="85" y="620" />
            </Array>
          </mxGeometry>
        </mxCell>
        <mxCell id="7baba1c4bc27f4b0-3" value="&lt;u&gt;:PerchaseControl&lt;/u&gt;" style="shape=umlLifeline;perimeter=lifelinePerimeter;whiteSpace=wrap;html=1;container=1;collapsible=0;recursiveResize=0;outlineConnect=0;rounded=1;shadow=0;comic=0;labelBackgroundColor=none;strokeWidth=1;fontFamily=Verdana;fontSize=12;align=center;" parent="1" vertex="1">
          <mxGeometry x="370" y="80" width="182.5" height="760" as="geometry" />
        </mxCell>
        <mxCell id="7baba1c4bc27f4b0-13" value="" style="html=1;points=[];perimeter=orthogonalPerimeter;rounded=0;shadow=0;comic=0;labelBackgroundColor=none;strokeWidth=1;fontFamily=Verdana;fontSize=12;align=center;" parent="7baba1c4bc27f4b0-3" vertex="1">
          <mxGeometry x="86.25" y="115" width="10" height="165" as="geometry" />
        </mxCell>
        <mxCell id="IuGNXHqaDEsQsmQJdTMt-13" value="cartID" style="text;html=1;align=center;verticalAlign=middle;resizable=0;points=[];autosize=1;strokeColor=none;fillColor=none;" vertex="1" parent="7baba1c4bc27f4b0-3">
          <mxGeometry x="136" y="174" width="60" height="30" as="geometry" />
        </mxCell>
        <mxCell id="IuGNXHqaDEsQsmQJdTMt-14" value="" style="html=1;points=[[0,0,0,0,5],[0,1,0,0,-5],[1,0,0,0,5],[1,1,0,0,-5]];perimeter=orthogonalPerimeter;outlineConnect=0;targetShapes=umlLifeline;portConstraint=eastwest;newEdgeStyle={&quot;curved&quot;:0,&quot;rounded&quot;:0};" vertex="1" parent="7baba1c4bc27f4b0-3">
          <mxGeometry x="86.25" y="350" width="10" height="80" as="geometry" />
        </mxCell>
        <mxCell id="IuGNXHqaDEsQsmQJdTMt-8" value="cartID" style="text;html=1;align=center;verticalAlign=middle;resizable=0;points=[];autosize=1;strokeColor=none;fillColor=none;" vertex="1" parent="7baba1c4bc27f4b0-3">
          <mxGeometry x="-28" y="135" width="60" height="30" as="geometry" />
        </mxCell>
        <mxCell id="IuGNXHqaDEsQsmQJdTMt-35" value="" style="html=1;points=[[0,0,0,0,5],[0,1,0,0,-5],[1,0,0,0,5],[1,1,0,0,-5]];perimeter=orthogonalPerimeter;outlineConnect=0;targetShapes=umlLifeline;portConstraint=eastwest;newEdgeStyle={&quot;curved&quot;:0,&quot;rounded&quot;:0};" vertex="1" parent="7baba1c4bc27f4b0-3">
          <mxGeometry x="86.25" y="480" width="10" height="70" as="geometry" />
        </mxCell>
        <mxCell id="IuGNXHqaDEsQsmQJdTMt-37" value="createGoodsInCart&lt;br&gt;(goodsID,cartID)" style="text;html=1;align=center;verticalAlign=middle;resizable=0;points=[];autosize=1;strokeColor=none;fillColor=none;" vertex="1" parent="7baba1c4bc27f4b0-3">
          <mxGeometry x="-50" y="463" width="120" height="40" as="geometry" />
        </mxCell>
        <mxCell id="7baba1c4bc27f4b0-14" value="getCartID()" style="html=1;verticalAlign=bottom;endArrow=block;entryX=0;entryY=0;labelBackgroundColor=none;fontFamily=Verdana;fontSize=12;edgeStyle=elbowEdgeStyle;elbow=vertical;" parent="7baba1c4bc27f4b0-3" edge="1">
          <mxGeometry relative="1" as="geometry">
            <mxPoint x="-75" y="130" as="sourcePoint" />
            <mxPoint x="86.25" y="130.00000000000023" as="targetPoint" />
          </mxGeometry>
        </mxCell>
        <mxCell id="IuGNXHqaDEsQsmQJdTMt-52" value="displayGoodsInCart(goodsList)" style="text;html=1;align=center;verticalAlign=middle;resizable=0;points=[];autosize=1;strokeColor=none;fillColor=none;" vertex="1" parent="7baba1c4bc27f4b0-3">
          <mxGeometry x="-50" y="610" width="190" height="30" as="geometry" />
        </mxCell>
        <mxCell id="IuGNXHqaDEsQsmQJdTMt-18" value="getGoodsID()" style="text;html=1;align=center;verticalAlign=middle;resizable=0;points=[];autosize=1;strokeColor=none;fillColor=none;" vertex="1" parent="7baba1c4bc27f4b0-3">
          <mxGeometry x="-38" y="350" width="100" height="30" as="geometry" />
        </mxCell>
        <mxCell id="IuGNXHqaDEsQsmQJdTMt-66" value="" style="endArrow=classic;html=1;rounded=0;" edge="1" parent="7baba1c4bc27f4b0-3">
          <mxGeometry width="50" height="50" relative="1" as="geometry">
            <mxPoint x="-73.37" y="379" as="sourcePoint" />
            <mxPoint x="85" y="379" as="targetPoint" />
          </mxGeometry>
        </mxCell>
        <mxCell id="IuGNXHqaDEsQsmQJdTMt-67" value="" style="endArrow=open;html=1;rounded=0;dashed=1;endFill=0;" edge="1" parent="7baba1c4bc27f4b0-3" target="IuGNXHqaDEsQsmQJdTMt-5">
          <mxGeometry width="50" height="50" relative="1" as="geometry">
            <mxPoint x="85" y="405" as="sourcePoint" />
            <mxPoint x="142" y="355" as="targetPoint" />
          </mxGeometry>
        </mxCell>
        <mxCell id="IuGNXHqaDEsQsmQJdTMt-21" value="goodsID" style="text;html=1;align=center;verticalAlign=middle;resizable=0;points=[];autosize=1;strokeColor=none;fillColor=none;" vertex="1" parent="7baba1c4bc27f4b0-3">
          <mxGeometry x="-28" y="382" width="70" height="30" as="geometry" />
        </mxCell>
        <mxCell id="7baba1c4bc27f4b0-4" value="&lt;u&gt;:CartInfo&lt;/u&gt;" style="shape=umlLifeline;perimeter=lifelinePerimeter;whiteSpace=wrap;html=1;container=1;collapsible=0;recursiveResize=0;outlineConnect=0;rounded=1;shadow=0;comic=0;labelBackgroundColor=none;strokeWidth=1;fontFamily=Verdana;fontSize=12;align=center;" parent="1" vertex="1">
          <mxGeometry x="560" y="80" width="100" height="750" as="geometry" />
        </mxCell>
        <mxCell id="7baba1c4bc27f4b0-16" value="" style="html=1;points=[];perimeter=orthogonalPerimeter;rounded=0;shadow=0;comic=0;labelBackgroundColor=none;strokeWidth=1;fontFamily=Verdana;fontSize=12;align=center;" parent="7baba1c4bc27f4b0-4" vertex="1">
          <mxGeometry x="45" y="135" width="10" height="125" as="geometry" />
        </mxCell>
        <mxCell id="IuGNXHqaDEsQsmQJdTMt-23" value="getGoodsID()" style="text;html=1;align=center;verticalAlign=middle;resizable=0;points=[];autosize=1;strokeColor=none;fillColor=none;" vertex="1" parent="7baba1c4bc27f4b0-4">
          <mxGeometry x="-40" y="368" width="100" height="30" as="geometry" />
        </mxCell>
        <mxCell id="IuGNXHqaDEsQsmQJdTMt-27" value="goodsID" style="text;html=1;align=center;verticalAlign=middle;resizable=0;points=[];autosize=1;strokeColor=none;fillColor=none;" vertex="1" parent="7baba1c4bc27f4b0-4">
          <mxGeometry x="-25" y="382" width="70" height="30" as="geometry" />
        </mxCell>
        <mxCell id="IuGNXHqaDEsQsmQJdTMt-38" value="" style="html=1;points=[[0,0,0,0,5],[0,1,0,0,-5],[1,0,0,0,5],[1,1,0,0,-5]];perimeter=orthogonalPerimeter;outlineConnect=0;targetShapes=umlLifeline;portConstraint=eastwest;newEdgeStyle={&quot;curved&quot;:0,&quot;rounded&quot;:0};" vertex="1" parent="7baba1c4bc27f4b0-4">
          <mxGeometry x="45" y="490" width="10" height="50" as="geometry" />
        </mxCell>
        <mxCell id="IuGNXHqaDEsQsmQJdTMt-26" value="" style="endArrow=open;html=1;rounded=0;dashed=1;endFill=0;" edge="1" parent="7baba1c4bc27f4b0-4">
          <mxGeometry width="50" height="50" relative="1" as="geometry">
            <mxPoint x="166" y="406" as="sourcePoint" />
            <mxPoint x="-97" y="406" as="targetPoint" />
          </mxGeometry>
        </mxCell>
        <mxCell id="7baba1c4bc27f4b0-5" value="&lt;u&gt;:GoodsInfo&lt;/u&gt;" style="shape=umlLifeline;perimeter=lifelinePerimeter;whiteSpace=wrap;html=1;container=1;collapsible=0;recursiveResize=0;outlineConnect=0;rounded=1;shadow=0;comic=0;labelBackgroundColor=none;strokeWidth=1;fontFamily=Verdana;fontSize=12;align=center;" parent="1" vertex="1">
          <mxGeometry x="680" y="80" width="100" height="750" as="geometry" />
        </mxCell>
        <mxCell id="7baba1c4bc27f4b0-19" value="" style="html=1;points=[];perimeter=orthogonalPerimeter;rounded=0;shadow=0;comic=0;labelBackgroundColor=none;strokeWidth=1;fontFamily=Verdana;fontSize=12;align=center;" parent="7baba1c4bc27f4b0-5" vertex="1">
          <mxGeometry x="45" y="370" width="10" height="40" as="geometry" />
        </mxCell>
        <mxCell id="7baba1c4bc27f4b0-17" value="getCartID()" style="html=1;verticalAlign=bottom;endArrow=block;labelBackgroundColor=none;fontFamily=Verdana;fontSize=12;edgeStyle=elbowEdgeStyle;elbow=vertical;" parent="1" target="7baba1c4bc27f4b0-4" edge="1">
          <mxGeometry x="0.0909" y="10" relative="1" as="geometry">
            <mxPoint x="490" y="250" as="sourcePoint" />
            <Array as="points">
              <mxPoint x="460" y="250" />
              <mxPoint x="450" y="249.5" />
            </Array>
            <mxPoint x="580" y="250" as="targetPoint" />
            <mxPoint y="1" as="offset" />
          </mxGeometry>
        </mxCell>
        <mxCell id="7baba1c4bc27f4b0-11" value="addGoodsInCart" style="html=1;verticalAlign=bottom;endArrow=block;entryX=0;entryY=0;labelBackgroundColor=none;fontFamily=Verdana;fontSize=12;edgeStyle=elbowEdgeStyle;elbow=vertical;" parent="1" target="7baba1c4bc27f4b0-10" edge="1">
          <mxGeometry relative="1" as="geometry">
            <mxPoint x="166" y="180" as="sourcePoint" />
          </mxGeometry>
        </mxCell>
        <mxCell id="IuGNXHqaDEsQsmQJdTMt-12" value="" style="edgeStyle=orthogonalEdgeStyle;rounded=0;orthogonalLoop=1;jettySize=auto;html=1;dashed=1;endArrow=open;endFill=0;" edge="1" parent="1" source="7baba1c4bc27f4b0-16" target="7baba1c4bc27f4b0-3">
          <mxGeometry relative="1" as="geometry">
            <Array as="points">
              <mxPoint x="530" y="305" />
              <mxPoint x="530" y="305" />
            </Array>
          </mxGeometry>
        </mxCell>
        <mxCell id="IuGNXHqaDEsQsmQJdTMt-16" style="edgeStyle=orthogonalEdgeStyle;rounded=0;orthogonalLoop=1;jettySize=auto;html=1;dashed=1;endArrow=open;endFill=0;" edge="1" parent="1" source="7baba1c4bc27f4b0-13" target="7baba1c4bc27f4b0-2">
          <mxGeometry relative="1" as="geometry">
            <Array as="points">
              <mxPoint x="400" y="240" />
              <mxPoint x="400" y="240" />
            </Array>
          </mxGeometry>
        </mxCell>
        <mxCell id="IuGNXHqaDEsQsmQJdTMt-22" style="edgeStyle=orthogonalEdgeStyle;rounded=0;orthogonalLoop=1;jettySize=auto;html=1;curved=0;entryX=0.2;entryY=0.5;entryDx=0;entryDy=0;entryPerimeter=0;" edge="1" parent="1" source="IuGNXHqaDEsQsmQJdTMt-14" target="7baba1c4bc27f4b0-19">
          <mxGeometry relative="1" as="geometry" />
        </mxCell>
        <mxCell id="IuGNXHqaDEsQsmQJdTMt-29" value="" style="endArrow=classic;html=1;rounded=0;" edge="1" parent="1" target="IuGNXHqaDEsQsmQJdTMt-5">
          <mxGeometry width="50" height="50" relative="1" as="geometry">
            <mxPoint x="295" y="470" as="sourcePoint" />
            <mxPoint x="453" y="470" as="targetPoint" />
          </mxGeometry>
        </mxCell>
        <mxCell id="IuGNXHqaDEsQsmQJdTMt-5" value="" style="html=1;points=[[0,0,0,0,5],[0,1,0,0,-5],[1,0,0,0,5],[1,1,0,0,-5]];perimeter=orthogonalPerimeter;outlineConnect=0;targetShapes=umlLifeline;portConstraint=eastwest;newEdgeStyle={&quot;curved&quot;:0,&quot;rounded&quot;:0};" vertex="1" parent="1">
          <mxGeometry x="285" y="425" width="10" height="110" as="geometry" />
        </mxCell>
        <mxCell id="IuGNXHqaDEsQsmQJdTMt-36" value="" style="endArrow=classic;html=1;rounded=0;" edge="1" parent="1">
          <mxGeometry width="50" height="50" relative="1" as="geometry">
            <mxPoint x="295" y="580" as="sourcePoint" />
            <mxPoint x="458" y="580" as="targetPoint" />
          </mxGeometry>
        </mxCell>
        <mxCell id="IuGNXHqaDEsQsmQJdTMt-39" value="" style="edgeStyle=orthogonalEdgeStyle;rounded=0;orthogonalLoop=1;jettySize=auto;html=1;curved=0;" edge="1" parent="1" source="IuGNXHqaDEsQsmQJdTMt-35" target="IuGNXHqaDEsQsmQJdTMt-38">
          <mxGeometry relative="1" as="geometry" />
        </mxCell>
        <mxCell id="IuGNXHqaDEsQsmQJdTMt-40" value="createGoodsIncart&lt;br&gt;(goodsID)" style="text;html=1;align=center;verticalAlign=middle;resizable=0;points=[];autosize=1;strokeColor=none;fillColor=none;" vertex="1" parent="1">
          <mxGeometry x="490" y="553" width="120" height="40" as="geometry" />
        </mxCell>
        <mxCell id="IuGNXHqaDEsQsmQJdTMt-42" value="" style="endArrow=open;html=1;rounded=0;entryX=1;entryY=1;entryDx=0;entryDy=-5;entryPerimeter=0;dashed=1;endFill=0;" edge="1" parent="1" source="IuGNXHqaDEsQsmQJdTMt-38">
          <mxGeometry width="50" height="50" relative="1" as="geometry">
            <mxPoint x="601" y="615" as="sourcePoint" />
            <mxPoint x="462.5" y="610" as="targetPoint" />
          </mxGeometry>
        </mxCell>
        <mxCell id="IuGNXHqaDEsQsmQJdTMt-45" value="goodsList" style="text;html=1;align=center;verticalAlign=middle;resizable=0;points=[];autosize=1;strokeColor=none;fillColor=none;" vertex="1" parent="1">
          <mxGeometry x="515" y="608" width="70" height="30" as="geometry" />
        </mxCell>
        <mxCell id="IuGNXHqaDEsQsmQJdTMt-46" value="" style="edgeStyle=orthogonalEdgeStyle;rounded=0;orthogonalLoop=1;jettySize=auto;html=1;curved=0;dashed=1;endArrow=open;endFill=0;" edge="1" parent="1" source="IuGNXHqaDEsQsmQJdTMt-35" target="IuGNXHqaDEsQsmQJdTMt-28">
          <mxGeometry relative="1" as="geometry">
            <Array as="points">
              <mxPoint x="410" y="600" />
              <mxPoint x="410" y="600" />
            </Array>
          </mxGeometry>
        </mxCell>
        <mxCell id="IuGNXHqaDEsQsmQJdTMt-47" value="goodsList" style="text;html=1;align=center;verticalAlign=middle;resizable=0;points=[];autosize=1;strokeColor=none;fillColor=none;" vertex="1" parent="1">
          <mxGeometry x="335" y="598" width="70" height="30" as="geometry" />
        </mxCell>
        <mxCell id="IuGNXHqaDEsQsmQJdTMt-58" value="User" style="shape=umlActor;verticalLabelPosition=bottom;verticalAlign=top;html=1;" vertex="1" parent="1">
          <mxGeometry x="145" y="67" width="30" height="60" as="geometry" />
        </mxCell>
        <mxCell id="IuGNXHqaDEsQsmQJdTMt-65" value="" style="endArrow=none;dashed=1;html=1;rounded=0;" edge="1" parent="1">
          <mxGeometry width="50" height="50" relative="1" as="geometry">
            <mxPoint x="159" y="827" as="sourcePoint" />
            <mxPoint x="159" y="155" as="targetPoint" />
          </mxGeometry>
        </mxCell>
        <mxCell id="IuGNXHqaDEsQsmQJdTMt-61" value="" style="html=1;points=[[0,0,0,0,5],[0,1,0,0,-5],[1,0,0,0,5],[1,1,0,0,-5]];perimeter=orthogonalPerimeter;outlineConnect=0;targetShapes=umlLifeline;portConstraint=eastwest;newEdgeStyle={&quot;curved&quot;:0,&quot;rounded&quot;:0};" vertex="1" parent="1">
          <mxGeometry x="155" y="167" width="10" height="624" as="geometry" />
        </mxCell>
      </root>
    </mxGraphModel>
  </diagram>
</mxfile>
